<svg width="16" height="16" viewBox="0 0 16 16" fill="none" xmlns="http://www.w3.org/2000/svg">
<path fill-rule="evenodd" clip-rule="evenodd" d="M4.00004 2.66666C3.26366 2.66666 2.66671 3.26362 2.66671 3.99999C2.66671 4.73637 3.26366 5.33333 4.00004 5.33333C4.73642 5.33333 5.33337 4.73637 5.33337 3.99999C5.33337 3.26362 4.73642 2.66666 4.00004 2.66666ZM6.66671 3.99999C6.66671 5.24255 5.81686 6.28662 4.66671 6.58265V6.66666C4.66671 6.84347 4.73695 7.01304 4.86197 7.13807C4.98699 7.26309 5.15656 7.33333 5.33337 7.33333H8.00004H10.6667C10.8435 7.33333 11.0131 7.26309 11.1381 7.13807C11.2631 7.01304 11.3334 6.84347 11.3334 6.66666V6.58265C10.1832 6.28662 9.33337 5.24255 9.33337 3.99999C9.33337 2.52724 10.5273 1.33333 12 1.33333C13.4728 1.33333 14.6667 2.52724 14.6667 3.99999C14.6667 5.24255 13.8169 6.28662 12.6667 6.58265V6.66666C12.6667 7.1971 12.456 7.7058 12.0809 8.08087C11.7058 8.45595 11.1971 8.66666 10.6667 8.66666H8.66671V9.41734C9.81686 9.71337 10.6667 10.7574 10.6667 12C10.6667 13.4728 9.4728 14.6667 8.00004 14.6667C6.52728 14.6667 5.33337 13.4728 5.33337 12C5.33337 10.7574 6.18322 9.71337 7.33337 9.41734V8.66666H5.33337C4.80294 8.66666 4.29423 8.45595 3.91916 8.08087C3.54409 7.7058 3.33337 7.19709 3.33337 6.66666V6.58265C2.18322 6.28662 1.33337 5.24255 1.33337 3.99999C1.33337 2.52724 2.52728 1.33333 4.00004 1.33333C5.4728 1.33333 6.66671 2.52724 6.66671 3.99999ZM8.00004 10.6667C7.26366 10.6667 6.66671 11.2636 6.66671 12C6.66671 12.7364 7.26366 13.3333 8.00004 13.3333C8.73642 13.3333 9.33337 12.7364 9.33337 12C9.33337 11.2636 8.73642 10.6667 8.00004 10.6667ZM13.3334 3.99999C13.3334 4.73637 12.7364 5.33333 12 5.33333C11.2637 5.33333 10.6667 4.73637 10.6667 3.99999C10.6667 3.26362 11.2637 2.66666 12 2.66666C12.7364 2.66666 13.3334 3.26362 13.3334 3.99999Z" fill="black"/>
</svg>
