<svg width="16" height="16" viewBox="0 0 16 16" fill="none" xmlns="http://www.w3.org/2000/svg">
<g clip-path="url(#clip0_19886_105398)">
<path fill-rule="evenodd" clip-rule="evenodd" d="M1.99996 8C1.99996 4.6863 4.68625 2.00001 7.99996 2.00001C11.3137 2.00001 14 4.6863 14 8C14 11.3137 11.3137 14 7.99996 14C4.68625 14 1.99996 11.3137 1.99996 8ZM7.99996 0.666672C3.94987 0.666672 0.666626 3.94992 0.666626 8C0.666626 12.0501 3.94987 15.3333 7.99996 15.3333C12.05 15.3333 15.3333 12.0501 15.3333 8C15.3333 3.94992 12.05 0.666672 7.99996 0.666672ZM11.4591 5.38416C11.5389 5.14461 11.4766 4.8805 11.298 4.70194C11.1195 4.52339 10.8554 4.46104 10.6158 4.54089L6.37581 5.95422C6.17674 6.02058 6.02053 6.17679 5.95418 6.37586L4.54084 10.6159C4.46099 10.8554 4.52334 11.1195 4.70189 11.2981C4.88045 11.4766 5.14456 11.539 5.38412 11.4591L9.62412 10.0458C9.82319 9.97944 9.9794 9.82323 10.0458 9.62416L11.4591 5.38416ZM6.22739 9.77259L7.11368 7.11372L9.77254 6.22744L8.88625 8.8863L6.22739 9.77259Z" fill="black"/>
</g>
<defs>
<clipPath id="clip0_19886_105398">
<rect width="16" height="16" fill="white"/>
</clipPath>
</defs>
</svg>
