<svg width="16" height="16" viewBox="0 0 16 16" fill="none" xmlns="http://www.w3.org/2000/svg">
<path fill-rule="evenodd" clip-rule="evenodd" d="M2.86197 2.86192C2.98699 2.7369 3.15656 2.66666 3.33337 2.66666H10.6667C11.0349 2.66666 11.3334 2.36818 11.3334 1.99999C11.3334 1.63181 11.0349 1.33333 10.6667 1.33333H3.33337C2.80294 1.33333 2.29423 1.54404 1.91916 1.91911C1.54409 2.29419 1.33337 2.8029 1.33337 3.33333V12.6667C1.33337 13.1971 1.54409 13.7058 1.91916 14.0809C2.29423 14.4559 2.80294 14.6667 3.33337 14.6667H12.6667C13.1971 14.6667 13.7058 14.4559 14.0809 14.0809C14.456 13.7058 14.6667 13.1971 14.6667 12.6667V8C14.6667 7.6318 14.3682 7.33333 14 7.33333C13.6319 7.33333 13.3334 7.6318 13.3334 8V12.6667C13.3334 12.8435 13.2631 13.013 13.1381 13.1381C13.0131 13.2631 12.8435 13.3333 12.6667 13.3333H3.33337C3.15656 13.3333 2.98699 13.2631 2.86197 13.1381C2.73695 13.013 2.66671 12.8435 2.66671 12.6667V3.33333C2.66671 3.15652 2.73695 2.98695 2.86197 2.86192ZM8.47145 9.80473L15.1381 3.13807C15.3985 2.87772 15.3985 2.45561 15.1381 2.19526C14.8778 1.93491 14.4557 1.93491 14.1953 2.19526L8.00004 8.39052L6.47145 6.86192C6.2111 6.60157 5.78899 6.60157 5.52864 6.86192C5.26829 7.12227 5.26829 7.54438 5.52864 7.80473L7.52864 9.80473C7.65366 9.92976 7.82323 10 8.00004 10C8.17685 10 8.34642 9.92976 8.47145 9.80473Z" fill="black"/>
</svg>
